<svg width="17" height="18" viewBox="0 0 17 18" fill="none" xmlns="http://www.w3.org/2000/svg">
<path d="M8.50016 16.6146C4.7885 16.6146 1.771 13.5971 1.771 9.88542C1.771 6.17375 4.7885 3.15625 8.50016 3.15625C12.2118 3.15625 15.2293 6.17375 15.2293 9.88542C15.2293 13.5971 12.2118 16.6146 8.50016 16.6146ZM8.50016 4.21875C5.37641 4.21875 2.8335 6.76167 2.8335 9.88542C2.8335 13.0092 5.37641 15.5521 8.50016 15.5521C11.6239 15.5521 14.1668 13.0092 14.1668 9.88542C14.1668 6.76167 11.6239 4.21875 8.50016 4.21875Z" fill="#D9D9D9"/>
<path d="M8.5 10.2396C8.20958 10.2396 7.96875 9.99875 7.96875 9.70833V6.16666C7.96875 5.87625 8.20958 5.63541 8.5 5.63541C8.79042 5.63541 9.03125 5.87625 9.03125 6.16666V9.70833C9.03125 9.99875 8.79042 10.2396 8.5 10.2396Z" fill="#D9D9D9"/>
<path d="M10.625 2.44791H6.375C6.08458 2.44791 5.84375 2.20708 5.84375 1.91666C5.84375 1.62625 6.08458 1.38541 6.375 1.38541H10.625C10.9154 1.38541 11.1562 1.62625 11.1562 1.91666C11.1562 2.20708 10.9154 2.44791 10.625 2.44791Z" fill="#D9D9D9"/>
</svg>
